<mxfile host="app.diagrams.net" modified="2024-02-08T23:27:34.852Z" agent="Mozilla/5.0 (Windows NT 10.0; Win64; x64) AppleWebKit/537.36 (KHTML, like Gecko) Chrome/120.0.0.0 YaBrowser/24.1.0.0 Safari/537.36" etag="pC9picPdhq1miYq0kDhV" version="23.1.2" type="device" pages="4">
  <diagram id="JQ9SCx9vXzzaWozlXH76" name="Страница — 2">
    <mxGraphModel dx="2673" dy="1013" grid="1" gridSize="10" guides="1" tooltips="1" connect="1" arrows="1" fold="1" page="1" pageScale="1" pageWidth="827" pageHeight="1169" math="0" shadow="0">
      <root>
        <mxCell id="0" />
        <mxCell id="1" parent="0" />
        <mxCell id="IG7zMW9V_TZmOPMzyRXg-1" value="&lt;font style=&quot;font-size: 18px;&quot;&gt;Конец&lt;/font&gt;" style="rounded=1;whiteSpace=wrap;html=1;align=center;verticalAlign=middle;fontFamily=Helvetica;fontSize=24;fontColor=default;fillColor=none;gradientColor=none;arcSize=50;" parent="1" vertex="1">
          <mxGeometry x="-519.5" y="120" width="213" height="23.12" as="geometry" />
        </mxCell>
        <mxCell id="IG7zMW9V_TZmOPMzyRXg-10" value="" style="endArrow=none;dashed=1;html=1;rounded=0;fontFamily=Helvetica;fontSize=24;fontColor=default;exitX=1;exitY=0.5;exitDx=0;exitDy=0;" parent="1" source="IG7zMW9V_TZmOPMzyRXg-1" target="IG7zMW9V_TZmOPMzyRXg-11" edge="1">
          <mxGeometry width="50" height="50" relative="1" as="geometry">
            <mxPoint x="-194" y="90" as="sourcePoint" />
            <mxPoint x="-174" y="90" as="targetPoint" />
          </mxGeometry>
        </mxCell>
        <mxCell id="IG7zMW9V_TZmOPMzyRXg-11" value="&lt;p style=&quot;line-height: 60%;&quot;&gt;&lt;font style=&quot;font-size: 14px;&quot;&gt;&amp;nbsp; &amp;nbsp;Вычисление точки пересечения&lt;br style=&quot;border-color: var(--border-color);&quot;&gt;&amp;nbsp; &amp;nbsp;Входные параметры:&lt;br style=&quot;border-color: var(--border-color);&quot;&gt;&amp;nbsp; &amp;nbsp;a1, a2, b1, b2, c1, c2&lt;br style=&quot;border-color: var(--border-color);&quot;&gt;&amp;nbsp; &amp;nbsp;Выходные параметры: double&lt;/font&gt;&lt;/p&gt;" style="strokeWidth=2;html=1;shape=mxgraph.flowchart.annotation_1;align=left;pointerEvents=1;verticalAlign=middle;fontFamily=Helvetica;fontSize=24;fontColor=default;fillColor=none;gradientColor=none;" parent="1" vertex="1">
          <mxGeometry x="-260" y="84.84" width="20" height="93.44" as="geometry" />
        </mxCell>
        <mxCell id="excdHK1BhZCK3gQ8xLKh-1" value="a1 = Lab_dll.Input_user(Input_a1_lab3);" style="shape=process;whiteSpace=wrap;html=1;backgroundOutline=1;" vertex="1" parent="1">
          <mxGeometry x="-553" y="160" width="280" height="20" as="geometry" />
        </mxCell>
        <mxCell id="excdHK1BhZCK3gQ8xLKh-2" value="" style="endArrow=none;html=1;rounded=0;entryX=0.5;entryY=0;entryDx=0;entryDy=0;exitX=0.5;exitY=1;exitDx=0;exitDy=0;" edge="1" target="excdHK1BhZCK3gQ8xLKh-1" parent="1" source="IG7zMW9V_TZmOPMzyRXg-1">
          <mxGeometry width="50" height="50" relative="1" as="geometry">
            <mxPoint x="-290" y="250" as="sourcePoint" />
            <mxPoint x="-286" y="320" as="targetPoint" />
          </mxGeometry>
        </mxCell>
        <mxCell id="excdHK1BhZCK3gQ8xLKh-4" value="" style="endArrow=none;html=1;rounded=0;entryX=0.5;entryY=0;entryDx=0;entryDy=0;exitX=0.5;exitY=1;exitDx=0;exitDy=0;" edge="1" target="excdHK1BhZCK3gQ8xLKh-9" parent="1" source="excdHK1BhZCK3gQ8xLKh-1">
          <mxGeometry width="50" height="50" relative="1" as="geometry">
            <mxPoint x="-311" y="390" as="sourcePoint" />
            <mxPoint x="-290" y="300" as="targetPoint" />
          </mxGeometry>
        </mxCell>
        <mxCell id="excdHK1BhZCK3gQ8xLKh-9" value="a2 = Lab_dll.Input_user(Input_a2_lab3);" style="shape=process;whiteSpace=wrap;html=1;backgroundOutline=1;" vertex="1" parent="1">
          <mxGeometry x="-553" y="190" width="280" height="20" as="geometry" />
        </mxCell>
        <mxCell id="excdHK1BhZCK3gQ8xLKh-10" value="" style="endArrow=none;html=1;rounded=0;entryX=0.5;entryY=0;entryDx=0;entryDy=0;exitX=0.5;exitY=1;exitDx=0;exitDy=0;" edge="1" parent="1" target="excdHK1BhZCK3gQ8xLKh-11" source="excdHK1BhZCK3gQ8xLKh-9">
          <mxGeometry width="50" height="50" relative="1" as="geometry">
            <mxPoint x="-290" y="340" as="sourcePoint" />
            <mxPoint x="-290" y="350" as="targetPoint" />
          </mxGeometry>
        </mxCell>
        <mxCell id="excdHK1BhZCK3gQ8xLKh-11" value="b1 = Lab_dll.Input_user(Input_b1_lab3);" style="shape=process;whiteSpace=wrap;html=1;backgroundOutline=1;" vertex="1" parent="1">
          <mxGeometry x="-553" y="220" width="280" height="20" as="geometry" />
        </mxCell>
        <mxCell id="excdHK1BhZCK3gQ8xLKh-16" value="" style="endArrow=none;html=1;rounded=0;entryX=0.5;entryY=0;entryDx=0;entryDy=0;exitX=0.5;exitY=1;exitDx=0;exitDy=0;" edge="1" parent="1" target="excdHK1BhZCK3gQ8xLKh-17" source="excdHK1BhZCK3gQ8xLKh-11">
          <mxGeometry width="50" height="50" relative="1" as="geometry">
            <mxPoint x="-290" y="430" as="sourcePoint" />
            <mxPoint x="-290" y="440" as="targetPoint" />
          </mxGeometry>
        </mxCell>
        <mxCell id="excdHK1BhZCK3gQ8xLKh-17" value="b2 = Lab_dll.Input_user(Input_b2_lab3);" style="shape=process;whiteSpace=wrap;html=1;backgroundOutline=1;" vertex="1" parent="1">
          <mxGeometry x="-553" y="250" width="280" height="20" as="geometry" />
        </mxCell>
        <mxCell id="excdHK1BhZCK3gQ8xLKh-18" value="" style="endArrow=none;html=1;rounded=0;entryX=0.5;entryY=0;entryDx=0;entryDy=0;exitX=0.5;exitY=1;exitDx=0;exitDy=0;" edge="1" parent="1" target="excdHK1BhZCK3gQ8xLKh-19" source="excdHK1BhZCK3gQ8xLKh-17">
          <mxGeometry width="50" height="50" relative="1" as="geometry">
            <mxPoint x="-290" y="380" as="sourcePoint" />
            <mxPoint x="-290" y="390" as="targetPoint" />
          </mxGeometry>
        </mxCell>
        <mxCell id="excdHK1BhZCK3gQ8xLKh-19" value="c1 = Lab_dll.Input_user(Input_c1_lab3);" style="shape=process;whiteSpace=wrap;html=1;backgroundOutline=1;" vertex="1" parent="1">
          <mxGeometry x="-553" y="280" width="280" height="20" as="geometry" />
        </mxCell>
        <mxCell id="excdHK1BhZCK3gQ8xLKh-20" value="" style="endArrow=none;html=1;rounded=0;entryX=0.5;entryY=0;entryDx=0;entryDy=0;exitX=0.5;exitY=1;exitDx=0;exitDy=0;" edge="1" parent="1" source="excdHK1BhZCK3gQ8xLKh-19" target="excdHK1BhZCK3gQ8xLKh-21">
          <mxGeometry width="50" height="50" relative="1" as="geometry">
            <mxPoint x="-290" y="480" as="sourcePoint" />
            <mxPoint x="-290" y="490" as="targetPoint" />
          </mxGeometry>
        </mxCell>
        <mxCell id="excdHK1BhZCK3gQ8xLKh-21" value="c2 = Lab_dll.Input_user(Input_c2_lab3);" style="shape=process;whiteSpace=wrap;html=1;backgroundOutline=1;" vertex="1" parent="1">
          <mxGeometry x="-553" y="310" width="280" height="20" as="geometry" />
        </mxCell>
        <mxCell id="excdHK1BhZCK3gQ8xLKh-23" value="Lab_dll.Lab3_All_Out(a1, a1, b1, b2, c1, c2, out Lab3_Res_X, out Lab3_Res_Y);" style="shape=process;whiteSpace=wrap;html=1;backgroundOutline=1;" vertex="1" parent="1">
          <mxGeometry x="-553" y="340" width="280" height="40" as="geometry" />
        </mxCell>
        <mxCell id="excdHK1BhZCK3gQ8xLKh-24" value="" style="endArrow=none;html=1;rounded=0;entryX=0.5;entryY=0;entryDx=0;entryDy=0;exitX=0.5;exitY=1;exitDx=0;exitDy=0;" edge="1" target="excdHK1BhZCK3gQ8xLKh-23" parent="1" source="excdHK1BhZCK3gQ8xLKh-21">
          <mxGeometry width="50" height="50" relative="1" as="geometry">
            <mxPoint x="-423" y="380" as="sourcePoint" />
            <mxPoint x="-386" y="520" as="targetPoint" />
          </mxGeometry>
        </mxCell>
        <mxCell id="excdHK1BhZCK3gQ8xLKh-25" value="Lab_dll.Out_info(lab3_result_x, Lab3_Res_X);" style="shape=process;whiteSpace=wrap;html=1;backgroundOutline=1;" vertex="1" parent="1">
          <mxGeometry x="-574.5" y="390" width="323" height="20" as="geometry" />
        </mxCell>
        <mxCell id="excdHK1BhZCK3gQ8xLKh-26" value="" style="endArrow=none;html=1;rounded=0;exitX=0.5;exitY=1;exitDx=0;exitDy=0;entryX=0.5;entryY=0;entryDx=0;entryDy=0;" edge="1" target="excdHK1BhZCK3gQ8xLKh-25" parent="1" source="excdHK1BhZCK3gQ8xLKh-23">
          <mxGeometry width="50" height="50" relative="1" as="geometry">
            <mxPoint x="-413" y="390" as="sourcePoint" />
            <mxPoint x="-400" y="400" as="targetPoint" />
          </mxGeometry>
        </mxCell>
        <mxCell id="excdHK1BhZCK3gQ8xLKh-27" value="Lab_dll.Out_info(lab3_result_y, Lab3_Res_Y);" style="shape=process;whiteSpace=wrap;html=1;backgroundOutline=1;" vertex="1" parent="1">
          <mxGeometry x="-574.5" y="420" width="323" height="20" as="geometry" />
        </mxCell>
        <mxCell id="excdHK1BhZCK3gQ8xLKh-28" value="" style="endArrow=none;html=1;rounded=0;entryX=0.5;entryY=1;entryDx=0;entryDy=0;exitX=0.5;exitY=0;exitDx=0;exitDy=0;" edge="1" parent="1" source="excdHK1BhZCK3gQ8xLKh-27" target="excdHK1BhZCK3gQ8xLKh-25">
          <mxGeometry width="50" height="50" relative="1" as="geometry">
            <mxPoint x="-480" y="430" as="sourcePoint" />
            <mxPoint x="-430" y="380" as="targetPoint" />
          </mxGeometry>
        </mxCell>
        <mxCell id="excdHK1BhZCK3gQ8xLKh-29" value="&lt;font style=&quot;font-size: 17px;&quot;&gt;Конец&lt;/font&gt;" style="rounded=1;whiteSpace=wrap;html=1;align=center;verticalAlign=middle;fontFamily=Helvetica;fontSize=24;fontColor=default;fillColor=none;gradientColor=none;arcSize=50;" vertex="1" parent="1">
          <mxGeometry x="-519.5" y="450" width="213" height="30" as="geometry" />
        </mxCell>
        <mxCell id="excdHK1BhZCK3gQ8xLKh-30" value="" style="endArrow=none;html=1;rounded=0;entryX=0.5;entryY=1;entryDx=0;entryDy=0;exitX=0.5;exitY=0;exitDx=0;exitDy=0;" edge="1" parent="1" source="excdHK1BhZCK3gQ8xLKh-29" target="excdHK1BhZCK3gQ8xLKh-27">
          <mxGeometry width="50" height="50" relative="1" as="geometry">
            <mxPoint x="-450" y="420" as="sourcePoint" />
            <mxPoint x="-400" y="370" as="targetPoint" />
          </mxGeometry>
        </mxCell>
      </root>
    </mxGraphModel>
  </diagram>
  <diagram name="Страница — 1" id="gcPGvN87TfxnaRKs2bh6">
    <mxGraphModel dx="1292" dy="709" grid="1" gridSize="10" guides="1" tooltips="1" connect="1" arrows="1" fold="1" page="1" pageScale="1" pageWidth="827" pageHeight="1169" math="0" shadow="0">
      <root>
        <mxCell id="0" />
        <mxCell id="1" parent="0" />
        <mxCell id="MPKb9II7nVbcK31kMtxN-38" value="" style="rounded=1;whiteSpace=wrap;html=1;arcSize=50;" parent="1" vertex="1">
          <mxGeometry x="354" y="40" width="120" height="60" as="geometry" />
        </mxCell>
        <mxCell id="MPKb9II7nVbcK31kMtxN-39" value="" style="endArrow=none;html=1;rounded=0;entryX=0.5;entryY=1;entryDx=0;entryDy=0;exitX=0.5;exitY=0;exitDx=0;exitDy=0;" parent="1" source="MPKb9II7nVbcK31kMtxN-44" target="MPKb9II7nVbcK31kMtxN-38" edge="1">
          <mxGeometry width="50" height="50" relative="1" as="geometry">
            <mxPoint x="414" y="120" as="sourcePoint" />
            <mxPoint x="414" y="100" as="targetPoint" />
          </mxGeometry>
        </mxCell>
        <mxCell id="MPKb9II7nVbcK31kMtxN-41" value="" style="endArrow=none;html=1;rounded=0;entryX=0.5;entryY=1;entryDx=0;entryDy=0;exitX=0.5;exitY=0;exitDx=0;exitDy=0;" parent="1" source="MPKb9II7nVbcK31kMtxN-45" target="MPKb9II7nVbcK31kMtxN-44" edge="1">
          <mxGeometry width="50" height="50" relative="1" as="geometry">
            <mxPoint x="414" y="290" as="sourcePoint" />
            <mxPoint x="414" y="180" as="targetPoint" />
          </mxGeometry>
        </mxCell>
        <mxCell id="MPKb9II7nVbcK31kMtxN-43" value="&lt;span style=&quot;font-weight: normal;&quot;&gt;Начало&lt;/span&gt;" style="text;strokeColor=none;fillColor=none;html=1;fontSize=24;fontStyle=1;verticalAlign=middle;align=center;" parent="1" vertex="1">
          <mxGeometry x="364" y="50" width="100" height="40" as="geometry" />
        </mxCell>
        <mxCell id="MPKb9II7nVbcK31kMtxN-44" value="" style="shape=process;whiteSpace=wrap;html=1;backgroundOutline=1;" parent="1" vertex="1">
          <mxGeometry x="354" y="120" width="120" height="60" as="geometry" />
        </mxCell>
        <mxCell id="MPKb9II7nVbcK31kMtxN-45" value="Make_result_lab3_Click" style="shape=process;whiteSpace=wrap;html=1;backgroundOutline=1;" parent="1" vertex="1">
          <mxGeometry x="332" y="198.67" width="164" height="60" as="geometry" />
        </mxCell>
        <mxCell id="MPKb9II7nVbcK31kMtxN-46" value="" style="shape=process;whiteSpace=wrap;html=1;backgroundOutline=1;" parent="1" vertex="1">
          <mxGeometry x="354" y="280" width="120" height="60" as="geometry" />
        </mxCell>
        <mxCell id="MPKb9II7nVbcK31kMtxN-47" value="" style="endArrow=none;html=1;rounded=0;entryX=0.5;entryY=1;entryDx=0;entryDy=0;exitX=0.5;exitY=0;exitDx=0;exitDy=0;" parent="1" source="MPKb9II7nVbcK31kMtxN-46" target="MPKb9II7nVbcK31kMtxN-45" edge="1">
          <mxGeometry width="50" height="50" relative="1" as="geometry">
            <mxPoint x="160" y="490" as="sourcePoint" />
            <mxPoint x="210" y="440" as="targetPoint" />
          </mxGeometry>
        </mxCell>
        <mxCell id="MPKb9II7nVbcK31kMtxN-48" value="" style="endArrow=none;dashed=1;html=1;rounded=0;exitX=1;exitY=0.5;exitDx=0;exitDy=0;entryX=0;entryY=0.5;entryDx=0;entryDy=0;entryPerimeter=0;" parent="1" source="MPKb9II7nVbcK31kMtxN-44" target="MPKb9II7nVbcK31kMtxN-52" edge="1">
          <mxGeometry width="50" height="50" relative="1" as="geometry">
            <mxPoint x="560" y="160" as="sourcePoint" />
            <mxPoint x="520" y="150" as="targetPoint" />
          </mxGeometry>
        </mxCell>
        <mxCell id="MPKb9II7nVbcK31kMtxN-49" value="" style="endArrow=none;dashed=1;html=1;rounded=0;exitX=1;exitY=0.5;exitDx=0;exitDy=0;entryX=0;entryY=0.5;entryDx=0;entryDy=0;entryPerimeter=0;" parent="1" source="MPKb9II7nVbcK31kMtxN-46" target="MPKb9II7nVbcK31kMtxN-63" edge="1">
          <mxGeometry width="50" height="50" relative="1" as="geometry">
            <mxPoint x="474" y="310" as="sourcePoint" />
            <mxPoint x="510" y="329.9999999999999" as="targetPoint" />
          </mxGeometry>
        </mxCell>
        <mxCell id="MPKb9II7nVbcK31kMtxN-50" value="" style="endArrow=none;dashed=1;html=1;rounded=0;exitX=1;exitY=0.5;exitDx=0;exitDy=0;entryX=0;entryY=0.5;entryDx=0;entryDy=0;entryPerimeter=0;" parent="1" source="MPKb9II7nVbcK31kMtxN-45" target="MPKb9II7nVbcK31kMtxN-53" edge="1">
          <mxGeometry width="50" height="50" relative="1" as="geometry">
            <mxPoint x="474" y="230" as="sourcePoint" />
            <mxPoint x="520" y="230" as="targetPoint" />
          </mxGeometry>
        </mxCell>
        <mxCell id="MPKb9II7nVbcK31kMtxN-52" value="" style="strokeWidth=2;html=1;shape=mxgraph.flowchart.annotation_1;align=left;pointerEvents=1;" parent="1" vertex="1">
          <mxGeometry x="550" y="120" width="20" height="57.66" as="geometry" />
        </mxCell>
        <mxCell id="MPKb9II7nVbcK31kMtxN-53" value="" style="strokeWidth=2;html=1;shape=mxgraph.flowchart.annotation_1;align=left;pointerEvents=1;" parent="1" vertex="1">
          <mxGeometry x="550" y="201.32999999999998" width="20" height="57.34" as="geometry" />
        </mxCell>
        <mxCell id="MPKb9II7nVbcK31kMtxN-55" value="" style="rounded=1;whiteSpace=wrap;html=1;arcSize=50;" parent="1" vertex="1">
          <mxGeometry x="354" y="370" width="120" height="60" as="geometry" />
        </mxCell>
        <mxCell id="MPKb9II7nVbcK31kMtxN-56" value="" style="endArrow=none;html=1;rounded=0;entryX=0.5;entryY=0;entryDx=0;entryDy=0;exitX=0.5;exitY=1;exitDx=0;exitDy=0;" parent="1" source="MPKb9II7nVbcK31kMtxN-46" target="MPKb9II7nVbcK31kMtxN-55" edge="1">
          <mxGeometry width="50" height="50" relative="1" as="geometry">
            <mxPoint x="340" y="320" as="sourcePoint" />
            <mxPoint x="390" y="270" as="targetPoint" />
          </mxGeometry>
        </mxCell>
        <mxCell id="MPKb9II7nVbcK31kMtxN-57" value="&lt;div style=&quot;text-align: justify;&quot;&gt;&lt;span style=&quot;font-weight: normal; background-color: initial;&quot;&gt;Конец&lt;/span&gt;&lt;/div&gt;" style="text;strokeColor=none;fillColor=none;html=1;fontSize=24;fontStyle=1;verticalAlign=middle;align=center;" parent="1" vertex="1">
          <mxGeometry x="364" y="380" width="100" height="40" as="geometry" />
        </mxCell>
        <mxCell id="MPKb9II7nVbcK31kMtxN-58" value="&lt;span style=&quot;font-weight: 400;&quot;&gt;&lt;font style=&quot;font-size: 17px;&quot;&gt;Input_user&lt;/font&gt;&lt;/span&gt;" style="text;strokeColor=none;fillColor=none;html=1;fontSize=24;fontStyle=1;verticalAlign=middle;align=center;" parent="1" vertex="1">
          <mxGeometry x="376" y="137.66" width="76" height="24.68" as="geometry" />
        </mxCell>
        <mxCell id="MPKb9II7nVbcK31kMtxN-60" value="&lt;font style=&quot;font-size: 17px; font-weight: normal;&quot;&gt;Out_info&lt;/font&gt;" style="text;strokeColor=none;fillColor=none;html=1;fontSize=24;fontStyle=1;verticalAlign=middle;align=center;" parent="1" vertex="1">
          <mxGeometry x="364" y="289.99" width="100" height="40" as="geometry" />
        </mxCell>
        <mxCell id="MPKb9II7nVbcK31kMtxN-61" value="&lt;span style=&quot;font-size: 14px; font-weight: 400;&quot;&gt;Ввод данных &lt;br&gt;для двух прямых&lt;br&gt;&lt;br&gt;&lt;/span&gt;" style="text;strokeColor=none;fillColor=none;html=1;fontSize=24;fontStyle=1;verticalAlign=middle;align=center;" parent="1" vertex="1">
          <mxGeometry x="560" y="137.66" width="120" height="31.17" as="geometry" />
        </mxCell>
        <mxCell id="MPKb9II7nVbcK31kMtxN-62" value="&lt;span style=&quot;font-weight: normal;&quot;&gt;&lt;font style=&quot;font-size: 16px;&quot;&gt;Вычисление и нахождение&lt;br&gt;координат пересечения&lt;/font&gt;&lt;/span&gt;" style="text;strokeColor=none;fillColor=none;html=1;fontSize=24;fontStyle=1;verticalAlign=middle;align=center;" parent="1" vertex="1">
          <mxGeometry x="610" y="210" width="100" height="40" as="geometry" />
        </mxCell>
        <mxCell id="MPKb9II7nVbcK31kMtxN-63" value="" style="strokeWidth=2;html=1;shape=mxgraph.flowchart.annotation_1;align=left;pointerEvents=1;" parent="1" vertex="1">
          <mxGeometry x="550" y="281.33" width="20" height="57.34" as="geometry" />
        </mxCell>
        <mxCell id="MPKb9II7nVbcK31kMtxN-64" value="&lt;span style=&quot;font-size: 16px; font-weight: 400;&quot;&gt;Вывод найденных&lt;br&gt;координат&lt;/span&gt;" style="text;strokeColor=none;fillColor=none;html=1;fontSize=24;fontStyle=1;verticalAlign=middle;align=center;" parent="1" vertex="1">
          <mxGeometry x="590" y="289.99" width="100" height="40" as="geometry" />
        </mxCell>
      </root>
    </mxGraphModel>
  </diagram>
  <diagram id="bSsHOiA-EXmUTwZNhqXW" name="Страница — 4">
    <mxGraphModel dx="1077" dy="591" grid="1" gridSize="10" guides="1" tooltips="1" connect="1" arrows="1" fold="1" page="1" pageScale="1" pageWidth="827" pageHeight="1169" math="0" shadow="0">
      <root>
        <mxCell id="0" />
        <mxCell id="1" parent="0" />
        <mxCell id="sax8-hh7cYWmfM-RZOj1-2" value="Input_user" style="rounded=0;whiteSpace=wrap;html=1;align=center;verticalAlign=middle;fontFamily=Helvetica;fontSize=16;fontColor=#000000;fillColor=#1ba1e2;labelBackgroundColor=#1ba1e2;strokeColor=#006EAF;" parent="1" vertex="1">
          <mxGeometry x="130" y="200" width="120" height="60" as="geometry" />
        </mxCell>
        <mxCell id="sax8-hh7cYWmfM-RZOj1-5" value="" style="endArrow=none;html=1;rounded=0;fontFamily=Helvetica;fontSize=16;fontColor=default;entryX=0.5;entryY=1;entryDx=0;entryDy=0;" parent="1" target="Ld2z6YMsv8Fg3z-BrwF2-3" edge="1">
          <mxGeometry width="50" height="50" relative="1" as="geometry">
            <mxPoint x="400" y="200" as="sourcePoint" />
            <mxPoint x="400" y="180" as="targetPoint" />
          </mxGeometry>
        </mxCell>
        <mxCell id="sax8-hh7cYWmfM-RZOj1-12" value="" style="endArrow=none;html=1;rounded=0;fontFamily=Helvetica;fontSize=16;fontColor=default;exitX=0.5;exitY=0;exitDx=0;exitDy=0;" parent="1" source="sax8-hh7cYWmfM-RZOj1-2" edge="1">
          <mxGeometry width="50" height="50" relative="1" as="geometry">
            <mxPoint x="200" y="220" as="sourcePoint" />
            <mxPoint x="400" y="190" as="targetPoint" />
            <Array as="points">
              <mxPoint x="190" y="190" />
            </Array>
          </mxGeometry>
        </mxCell>
        <mxCell id="sax8-hh7cYWmfM-RZOj1-13" value="" style="endArrow=none;html=1;rounded=0;fontFamily=Helvetica;fontSize=16;fontColor=default;exitX=0.5;exitY=0;exitDx=0;exitDy=0;" parent="1" source="Ld2z6YMsv8Fg3z-BrwF2-1" edge="1">
          <mxGeometry width="50" height="50" relative="1" as="geometry">
            <mxPoint x="620" y="230" as="sourcePoint" />
            <mxPoint x="400" y="190" as="targetPoint" />
            <Array as="points">
              <mxPoint x="620" y="190" />
            </Array>
          </mxGeometry>
        </mxCell>
        <mxCell id="sax8-hh7cYWmfM-RZOj1-14" value="" style="endArrow=none;html=1;rounded=0;fontFamily=Helvetica;fontSize=16;fontColor=default;exitX=0.5;exitY=0;exitDx=0;exitDy=0;" parent="1" source="Ld2z6YMsv8Fg3z-BrwF2-2" edge="1">
          <mxGeometry width="50" height="50" relative="1" as="geometry">
            <mxPoint x="400" y="230" as="sourcePoint" />
            <mxPoint x="400" y="190" as="targetPoint" />
          </mxGeometry>
        </mxCell>
        <mxCell id="Ld2z6YMsv8Fg3z-BrwF2-1" value="Out_info" style="rounded=0;whiteSpace=wrap;html=1;align=center;verticalAlign=middle;fontFamily=Helvetica;fontSize=16;fontColor=#000000;fillColor=#1ba1e2;labelBackgroundColor=#1ba1e2;strokeColor=#006EAF;" parent="1" vertex="1">
          <mxGeometry x="560" y="200" width="120" height="60" as="geometry" />
        </mxCell>
        <mxCell id="Ld2z6YMsv8Fg3z-BrwF2-2" value="Lab3_All_Out" style="rounded=0;whiteSpace=wrap;html=1;align=center;verticalAlign=middle;fontFamily=Helvetica;fontSize=16;fontColor=#000000;fillColor=#1ba1e2;labelBackgroundColor=#1ba1e2;strokeColor=#006EAF;" parent="1" vertex="1">
          <mxGeometry x="340" y="200" width="120" height="60" as="geometry" />
        </mxCell>
        <mxCell id="Ld2z6YMsv8Fg3z-BrwF2-3" value="Make_result_lab3_Click" style="rounded=0;whiteSpace=wrap;html=1;align=center;verticalAlign=middle;fontFamily=Helvetica;fontSize=16;fontColor=#000000;fillColor=#1ba1e2;labelBackgroundColor=#1ba1e2;strokeColor=#006EAF;" parent="1" vertex="1">
          <mxGeometry x="310" y="120" width="180" height="60" as="geometry" />
        </mxCell>
        <mxCell id="Ld2z6YMsv8Fg3z-BrwF2-4" value="" style="endArrow=none;html=1;rounded=0;fontFamily=Helvetica;fontSize=16;fontColor=default;entryX=0.5;entryY=1;entryDx=0;entryDy=0;exitX=0.5;exitY=0;exitDx=0;exitDy=0;" parent="1" target="Ld2z6YMsv8Fg3z-BrwF2-2" edge="1" source="dMqKZ9X7-DWBDHagsEWo-1">
          <mxGeometry width="50" height="50" relative="1" as="geometry">
            <mxPoint x="400" y="300" as="sourcePoint" />
            <mxPoint x="400" y="290" as="targetPoint" />
          </mxGeometry>
        </mxCell>
        <mxCell id="dMqKZ9X7-DWBDHagsEWo-1" value="Lab3_Matrix" style="rounded=0;whiteSpace=wrap;html=1;align=center;verticalAlign=middle;fontFamily=Helvetica;fontSize=16;fontColor=#000000;fillColor=#1ba1e2;labelBackgroundColor=#1ba1e2;strokeColor=#006EAF;" vertex="1" parent="1">
          <mxGeometry x="340" y="280" width="120" height="60" as="geometry" />
        </mxCell>
      </root>
    </mxGraphModel>
  </diagram>
  <diagram id="gbt34hBywxkVAUpJ63Ti" name="Страница — 3">
    <mxGraphModel dx="2358" dy="1309" grid="1" gridSize="10" guides="1" tooltips="1" connect="1" arrows="1" fold="1" page="1" pageScale="1" pageWidth="827" pageHeight="1169" math="0" shadow="0">
      <root>
        <mxCell id="0" />
        <mxCell id="1" parent="0" />
        <mxCell id="JByD3nCNMzfMSLDcumtZ-1" value="&lt;font style=&quot;font-size: 16px;&quot;&gt;Начало&lt;br&gt;Res_Delta_X&lt;/font&gt;" style="rounded=1;whiteSpace=wrap;html=1;align=center;verticalAlign=middle;fontFamily=Helvetica;fontSize=16;fontColor=default;fillColor=none;gradientColor=none;arcSize=50;" vertex="1" parent="1">
          <mxGeometry x="50" y="120" width="120" height="60" as="geometry" />
        </mxCell>
        <mxCell id="JByD3nCNMzfMSLDcumtZ-4" value="Начало&lt;br&gt;Delta()" style="rounded=1;whiteSpace=wrap;html=1;align=center;verticalAlign=middle;fillColor=none;gradientColor=none;arcSize=50;fontSize=16;" vertex="1" parent="1">
          <mxGeometry x="690" y="120" width="120" height="60" as="geometry" />
        </mxCell>
        <mxCell id="JByD3nCNMzfMSLDcumtZ-5" value="Начало&lt;br&gt;Res_Delta_Y" style="rounded=1;whiteSpace=wrap;html=1;align=center;verticalAlign=middle;fontFamily=Helvetica;fontSize=16;fontColor=default;fillColor=none;gradientColor=none;arcSize=50;" vertex="1" parent="1">
          <mxGeometry x="1310" y="120" width="120" height="60" as="geometry" />
        </mxCell>
        <mxCell id="JByD3nCNMzfMSLDcumtZ-7" value="" style="endArrow=none;html=1;rounded=0;fontFamily=Helvetica;fontSize=16;fontColor=default;entryX=0.5;entryY=1;entryDx=0;entryDy=0;exitX=0.5;exitY=0;exitDx=0;exitDy=0;" edge="1" parent="1" source="JByD3nCNMzfMSLDcumtZ-8" target="JByD3nCNMzfMSLDcumtZ-1">
          <mxGeometry width="50" height="50" relative="1" as="geometry">
            <mxPoint x="390" y="690" as="sourcePoint" />
            <mxPoint x="440" y="640" as="targetPoint" />
          </mxGeometry>
        </mxCell>
        <mxCell id="JByD3nCNMzfMSLDcumtZ-8" value="(c1 * b2) - (c2 * b1)" style="rounded=0;whiteSpace=wrap;html=1;align=center;verticalAlign=middle;fontFamily=Helvetica;fontSize=16;fontColor=default;fillColor=none;gradientColor=none;" vertex="1" parent="1">
          <mxGeometry x="40" y="210" width="140" height="60" as="geometry" />
        </mxCell>
        <mxCell id="JByD3nCNMzfMSLDcumtZ-9" value="" style="endArrow=none;html=1;rounded=0;fontFamily=Helvetica;fontSize=16;fontColor=default;exitX=0.5;exitY=0;exitDx=0;exitDy=0;entryX=0.5;entryY=1;entryDx=0;entryDy=0;" edge="1" parent="1" source="JByD3nCNMzfMSLDcumtZ-14" target="JByD3nCNMzfMSLDcumtZ-4">
          <mxGeometry width="50" height="50" relative="1" as="geometry">
            <mxPoint x="750" y="210" as="sourcePoint" />
            <mxPoint x="756" y="190" as="targetPoint" />
          </mxGeometry>
        </mxCell>
        <mxCell id="JByD3nCNMzfMSLDcumtZ-11" value="" style="endArrow=none;html=1;rounded=0;fontFamily=Helvetica;fontSize=16;fontColor=default;entryX=0.5;entryY=1;entryDx=0;entryDy=0;exitX=0.5;exitY=0;exitDx=0;exitDy=0;" edge="1" parent="1" source="JByD3nCNMzfMSLDcumtZ-13" target="JByD3nCNMzfMSLDcumtZ-5">
          <mxGeometry width="50" height="50" relative="1" as="geometry">
            <mxPoint x="1370" y="210" as="sourcePoint" />
            <mxPoint x="1370" y="195" as="targetPoint" />
          </mxGeometry>
        </mxCell>
        <mxCell id="JByD3nCNMzfMSLDcumtZ-13" value="(a1 * c2) - (a2 * c1)" style="rounded=0;whiteSpace=wrap;html=1;align=center;verticalAlign=middle;fontFamily=Helvetica;fontSize=16;fontColor=default;fillColor=none;gradientColor=none;" vertex="1" parent="1">
          <mxGeometry x="1300" y="210" width="140" height="60" as="geometry" />
        </mxCell>
        <mxCell id="JByD3nCNMzfMSLDcumtZ-14" value="(a1 * b2) - (a2 * b1)" style="rounded=0;whiteSpace=wrap;html=1;align=center;verticalAlign=middle;fontFamily=Helvetica;fontSize=16;fontColor=default;fillColor=none;gradientColor=none;" vertex="1" parent="1">
          <mxGeometry x="680" y="210" width="140" height="60" as="geometry" />
        </mxCell>
        <mxCell id="ppO2m8GWplqeA0fYNwq0-2" value="" style="endArrow=none;dashed=1;html=1;rounded=0;fontFamily=Helvetica;fontSize=16;fontColor=default;exitX=1;exitY=0.5;exitDx=0;exitDy=0;" edge="1" parent="1" source="JByD3nCNMzfMSLDcumtZ-1" target="ppO2m8GWplqeA0fYNwq0-3">
          <mxGeometry width="50" height="50" relative="1" as="geometry">
            <mxPoint x="180" y="150" as="sourcePoint" />
            <mxPoint x="220" y="150" as="targetPoint" />
          </mxGeometry>
        </mxCell>
        <mxCell id="ppO2m8GWplqeA0fYNwq0-3" value="&amp;nbsp; &amp;nbsp;Вычисление определителя второго порядка&lt;br&gt;&amp;nbsp; &amp;nbsp;Входные параметры: c1, c2, b1, b2&lt;br style=&quot;border-color: var(--border-color); text-align: center;&quot;&gt;&lt;span style=&quot;text-align: center;&quot;&gt;&amp;nbsp; &amp;nbsp;Выходные параметры: double delta_x&lt;/span&gt;" style="strokeWidth=2;html=1;shape=mxgraph.flowchart.annotation_1;align=left;pointerEvents=1;verticalAlign=middle;fontFamily=Helvetica;fontSize=16;fontColor=default;fillColor=none;gradientColor=none;" vertex="1" parent="1">
          <mxGeometry x="195" y="120" width="25" height="60" as="geometry" />
        </mxCell>
        <mxCell id="-kBLib8XsM5FMUQgzwyr-1" value="" style="endArrow=none;dashed=1;html=1;rounded=0;fontFamily=Helvetica;fontSize=16;fontColor=default;exitX=1;exitY=0.5;exitDx=0;exitDy=0;" edge="1" parent="1" target="-kBLib8XsM5FMUQgzwyr-2" source="JByD3nCNMzfMSLDcumtZ-5">
          <mxGeometry width="50" height="50" relative="1" as="geometry">
            <mxPoint x="1440" y="150" as="sourcePoint" />
            <mxPoint x="1490" y="150" as="targetPoint" />
          </mxGeometry>
        </mxCell>
        <mxCell id="-kBLib8XsM5FMUQgzwyr-2" value="&amp;nbsp; &amp;nbsp;Вычисление определителя второго порядка&lt;br style=&quot;border-color: var(--border-color); text-align: center;&quot;&gt;&lt;span style=&quot;text-align: center;&quot;&gt;&amp;nbsp; &amp;nbsp;Входные данные: a1, a2, c1, c2&lt;/span&gt;&lt;br style=&quot;border-color: var(--border-color); text-align: center;&quot;&gt;&lt;span style=&quot;text-align: center;&quot;&gt;&amp;nbsp; &amp;nbsp;Выходные данные: double delta_y&lt;/span&gt;" style="strokeWidth=2;html=1;shape=mxgraph.flowchart.annotation_1;align=left;pointerEvents=1;verticalAlign=middle;fontFamily=Helvetica;fontSize=16;fontColor=default;fillColor=none;gradientColor=none;" vertex="1" parent="1">
          <mxGeometry x="1465" y="120" width="25" height="60" as="geometry" />
        </mxCell>
        <mxCell id="_0iIQ51jGWU1YBUbTsYF-1" value="" style="endArrow=none;dashed=1;html=1;rounded=0;fontFamily=Helvetica;fontSize=16;fontColor=default;exitX=1;exitY=0.5;exitDx=0;exitDy=0;" edge="1" parent="1" target="_0iIQ51jGWU1YBUbTsYF-2" source="JByD3nCNMzfMSLDcumtZ-4">
          <mxGeometry width="50" height="50" relative="1" as="geometry">
            <mxPoint x="810" y="150" as="sourcePoint" />
            <mxPoint x="860" y="150" as="targetPoint" />
          </mxGeometry>
        </mxCell>
        <mxCell id="_0iIQ51jGWU1YBUbTsYF-2" value="&amp;nbsp; &amp;nbsp;Вычисление определителя второго порядка&lt;br&gt;&amp;nbsp; &amp;nbsp;Входные параметры: a1, a2, b1, b2&lt;br style=&quot;border-color: var(--border-color); text-align: center;&quot;&gt;&lt;span style=&quot;text-align: center;&quot;&gt;&amp;nbsp; &amp;nbsp;Выходные параметры: double delta_x&lt;/span&gt;" style="strokeWidth=2;html=1;shape=mxgraph.flowchart.annotation_1;align=left;pointerEvents=1;verticalAlign=middle;fontFamily=Helvetica;fontSize=16;fontColor=default;fillColor=none;gradientColor=none;" vertex="1" parent="1">
          <mxGeometry x="835" y="120" width="25" height="60" as="geometry" />
        </mxCell>
        <mxCell id="FEOhGibvp6qKB15Zhyrx-1" value="" style="endArrow=none;html=1;rounded=0;fontFamily=Helvetica;fontSize=16;fontColor=default;entryX=0.5;entryY=1;entryDx=0;entryDy=0;exitX=0.5;exitY=0;exitDx=0;exitDy=0;" edge="1" parent="1" source="FEOhGibvp6qKB15Zhyrx-2" target="JByD3nCNMzfMSLDcumtZ-14">
          <mxGeometry width="50" height="50" relative="1" as="geometry">
            <mxPoint x="880" y="440" as="sourcePoint" />
            <mxPoint x="930" y="390" as="targetPoint" />
          </mxGeometry>
        </mxCell>
        <mxCell id="FEOhGibvp6qKB15Zhyrx-2" value="Конец&lt;br&gt;Delta()" style="rounded=1;whiteSpace=wrap;html=1;align=center;verticalAlign=middle;fontFamily=Helvetica;fontSize=16;fontColor=default;fillColor=none;gradientColor=none;arcSize=50;" vertex="1" parent="1">
          <mxGeometry x="690" y="300" width="120" height="60" as="geometry" />
        </mxCell>
        <mxCell id="FEOhGibvp6qKB15Zhyrx-3" value="" style="endArrow=none;html=1;rounded=0;fontFamily=Helvetica;fontSize=16;fontColor=default;exitX=0.5;exitY=0;exitDx=0;exitDy=0;entryX=0.5;entryY=1;entryDx=0;entryDy=0;" edge="1" parent="1" source="FEOhGibvp6qKB15Zhyrx-4" target="JByD3nCNMzfMSLDcumtZ-13">
          <mxGeometry width="50" height="50" relative="1" as="geometry">
            <mxPoint x="1500" y="430" as="sourcePoint" />
            <mxPoint x="1520" y="330" as="targetPoint" />
          </mxGeometry>
        </mxCell>
        <mxCell id="FEOhGibvp6qKB15Zhyrx-4" value="Конец&lt;br&gt;Res_Delta_Y()" style="rounded=1;whiteSpace=wrap;html=1;align=center;verticalAlign=middle;fontFamily=Helvetica;fontSize=16;fontColor=default;fillColor=none;gradientColor=none;arcSize=50;" vertex="1" parent="1">
          <mxGeometry x="1310" y="300" width="120" height="60" as="geometry" />
        </mxCell>
        <mxCell id="FEOhGibvp6qKB15Zhyrx-5" value="" style="endArrow=none;html=1;rounded=0;fontFamily=Helvetica;fontSize=16;fontColor=default;exitX=0.5;exitY=0;exitDx=0;exitDy=0;entryX=0.5;entryY=1;entryDx=0;entryDy=0;" edge="1" parent="1" source="FEOhGibvp6qKB15Zhyrx-6" target="JByD3nCNMzfMSLDcumtZ-8">
          <mxGeometry width="50" height="50" relative="1" as="geometry">
            <mxPoint x="240" y="440" as="sourcePoint" />
            <mxPoint x="190" y="330" as="targetPoint" />
          </mxGeometry>
        </mxCell>
        <mxCell id="FEOhGibvp6qKB15Zhyrx-6" value="Конец&lt;br&gt;Res_Delta_X()" style="rounded=1;whiteSpace=wrap;html=1;align=center;verticalAlign=middle;fontFamily=Helvetica;fontSize=16;fontColor=default;fillColor=none;gradientColor=none;arcSize=50;" vertex="1" parent="1">
          <mxGeometry x="50" y="300" width="120" height="60" as="geometry" />
        </mxCell>
        <mxCell id="FEOhGibvp6qKB15Zhyrx-7" value="Начало&lt;br&gt;res_x" style="rounded=1;whiteSpace=wrap;html=1;align=center;verticalAlign=middle;fontFamily=Helvetica;fontSize=16;fontColor=default;fillColor=none;gradientColor=none;arcSize=50;" vertex="1" parent="1">
          <mxGeometry x="260" y="470" width="120" height="60" as="geometry" />
        </mxCell>
        <mxCell id="FEOhGibvp6qKB15Zhyrx-8" value="delta_x / delta" style="rounded=0;whiteSpace=wrap;html=1;align=center;verticalAlign=middle;fontFamily=Helvetica;fontSize=16;fontColor=default;fillColor=none;gradientColor=none;" vertex="1" parent="1">
          <mxGeometry x="260" y="770" width="120" height="60" as="geometry" />
        </mxCell>
        <mxCell id="FEOhGibvp6qKB15Zhyrx-10" value="Конец&lt;br&gt;res_x" style="rounded=1;whiteSpace=wrap;html=1;align=center;verticalAlign=middle;fontFamily=Helvetica;fontSize=16;fontColor=default;fillColor=none;gradientColor=none;arcSize=50;" vertex="1" parent="1">
          <mxGeometry x="260" y="870" width="120" height="60" as="geometry" />
        </mxCell>
        <mxCell id="FEOhGibvp6qKB15Zhyrx-12" value="" style="endArrow=none;html=1;rounded=0;fontFamily=Helvetica;fontSize=16;fontColor=default;entryX=0.5;entryY=0;entryDx=0;entryDy=0;exitX=0.5;exitY=1;exitDx=0;exitDy=0;" edge="1" parent="1" source="FEOhGibvp6qKB15Zhyrx-8" target="FEOhGibvp6qKB15Zhyrx-10">
          <mxGeometry width="50" height="50" relative="1" as="geometry">
            <mxPoint x="550" y="815" as="sourcePoint" />
            <mxPoint x="800" y="815" as="targetPoint" />
          </mxGeometry>
        </mxCell>
        <mxCell id="FEOhGibvp6qKB15Zhyrx-13" value="Начало&lt;br&gt;res_y" style="rounded=1;whiteSpace=wrap;html=1;align=center;verticalAlign=middle;fontFamily=Helvetica;fontSize=16;fontColor=default;fillColor=none;gradientColor=none;arcSize=50;" vertex="1" parent="1">
          <mxGeometry x="835" y="470" width="120" height="60" as="geometry" />
        </mxCell>
        <mxCell id="FEOhGibvp6qKB15Zhyrx-14" value="delta_y / delta" style="rounded=0;whiteSpace=wrap;html=1;align=center;verticalAlign=middle;fontFamily=Helvetica;fontSize=16;fontColor=default;fillColor=none;gradientColor=none;" vertex="1" parent="1">
          <mxGeometry x="835" y="775" width="120" height="60" as="geometry" />
        </mxCell>
        <mxCell id="FEOhGibvp6qKB15Zhyrx-15" value="Конец&lt;br&gt;res_y" style="rounded=1;whiteSpace=wrap;html=1;align=center;verticalAlign=middle;fontFamily=Helvetica;fontSize=16;fontColor=default;fillColor=none;gradientColor=none;arcSize=50;" vertex="1" parent="1">
          <mxGeometry x="835" y="870" width="120" height="60" as="geometry" />
        </mxCell>
        <mxCell id="FEOhGibvp6qKB15Zhyrx-17" value="" style="endArrow=none;html=1;rounded=0;fontFamily=Helvetica;fontSize=16;fontColor=default;entryX=0.5;entryY=0;entryDx=0;entryDy=0;exitX=0.5;exitY=1;exitDx=0;exitDy=0;" edge="1" parent="1" source="FEOhGibvp6qKB15Zhyrx-14" target="FEOhGibvp6qKB15Zhyrx-15">
          <mxGeometry width="50" height="50" relative="1" as="geometry">
            <mxPoint x="1125" y="830" as="sourcePoint" />
            <mxPoint x="1375" y="830" as="targetPoint" />
          </mxGeometry>
        </mxCell>
        <mxCell id="FEOhGibvp6qKB15Zhyrx-18" value="" style="endArrow=none;dashed=1;html=1;rounded=0;fontFamily=Helvetica;fontSize=16;fontColor=default;exitX=1;exitY=0.5;exitDx=0;exitDy=0;" edge="1" parent="1" target="FEOhGibvp6qKB15Zhyrx-19" source="JByD3nCNMzfMSLDcumtZ-8">
          <mxGeometry width="50" height="50" relative="1" as="geometry">
            <mxPoint x="280" y="310" as="sourcePoint" />
            <mxPoint x="330" y="230" as="targetPoint" />
          </mxGeometry>
        </mxCell>
        <mxCell id="FEOhGibvp6qKB15Zhyrx-19" value="&amp;nbsp; &amp;nbsp;Вычисление определителя второго порядка" style="strokeWidth=2;html=1;shape=mxgraph.flowchart.annotation_1;align=left;pointerEvents=1;verticalAlign=middle;fontFamily=Helvetica;fontSize=16;fontColor=default;fillColor=none;gradientColor=none;" vertex="1" parent="1">
          <mxGeometry x="210" y="210" width="25" height="60" as="geometry" />
        </mxCell>
        <mxCell id="FEOhGibvp6qKB15Zhyrx-20" value="" style="endArrow=none;dashed=1;html=1;rounded=0;fontFamily=Helvetica;fontSize=16;fontColor=default;exitX=1;exitY=0.5;exitDx=0;exitDy=0;" edge="1" parent="1" target="FEOhGibvp6qKB15Zhyrx-21" source="JByD3nCNMzfMSLDcumtZ-14">
          <mxGeometry width="50" height="50" relative="1" as="geometry">
            <mxPoint x="840" y="230" as="sourcePoint" />
            <mxPoint x="990" y="220" as="targetPoint" />
          </mxGeometry>
        </mxCell>
        <mxCell id="FEOhGibvp6qKB15Zhyrx-21" value="&amp;nbsp; &amp;nbsp;Вычисление определителя второго порядка" style="strokeWidth=2;html=1;shape=mxgraph.flowchart.annotation_1;align=left;pointerEvents=1;verticalAlign=middle;fontFamily=Helvetica;fontSize=16;fontColor=default;fillColor=none;gradientColor=none;" vertex="1" parent="1">
          <mxGeometry x="850" y="210" width="25" height="60" as="geometry" />
        </mxCell>
        <mxCell id="FEOhGibvp6qKB15Zhyrx-22" value="" style="endArrow=none;dashed=1;html=1;rounded=0;fontFamily=Helvetica;fontSize=16;fontColor=default;exitX=1;exitY=0.5;exitDx=0;exitDy=0;" edge="1" parent="1" target="FEOhGibvp6qKB15Zhyrx-23" source="JByD3nCNMzfMSLDcumtZ-13">
          <mxGeometry width="50" height="50" relative="1" as="geometry">
            <mxPoint x="1510" y="240" as="sourcePoint" />
            <mxPoint x="1660" y="230" as="targetPoint" />
          </mxGeometry>
        </mxCell>
        <mxCell id="FEOhGibvp6qKB15Zhyrx-23" value="&amp;nbsp; &amp;nbsp;Вычисление определителя второго порядка" style="strokeWidth=2;html=1;shape=mxgraph.flowchart.annotation_1;align=left;pointerEvents=1;verticalAlign=middle;fontFamily=Helvetica;fontSize=16;fontColor=default;fillColor=none;gradientColor=none;" vertex="1" parent="1">
          <mxGeometry x="1470" y="210" width="25" height="60" as="geometry" />
        </mxCell>
        <mxCell id="FEOhGibvp6qKB15Zhyrx-25" value="Res_Delta_X" style="shape=process;whiteSpace=wrap;html=1;backgroundOutline=1;align=center;verticalAlign=middle;fontFamily=Helvetica;fontSize=16;fontColor=default;fillColor=none;gradientColor=none;" vertex="1" parent="1">
          <mxGeometry x="260" y="570" width="120" height="60" as="geometry" />
        </mxCell>
        <mxCell id="FEOhGibvp6qKB15Zhyrx-26" value="Delta()" style="shape=process;whiteSpace=wrap;html=1;backgroundOutline=1;align=center;verticalAlign=middle;fontFamily=Helvetica;fontSize=16;fontColor=default;fillColor=none;gradientColor=none;" vertex="1" parent="1">
          <mxGeometry x="260" y="670" width="120" height="60" as="geometry" />
        </mxCell>
        <mxCell id="FEOhGibvp6qKB15Zhyrx-27" value="" style="endArrow=none;html=1;rounded=0;fontFamily=Helvetica;fontSize=16;fontColor=default;entryX=0.5;entryY=1;entryDx=0;entryDy=0;" edge="1" parent="1" source="FEOhGibvp6qKB15Zhyrx-25" target="FEOhGibvp6qKB15Zhyrx-7">
          <mxGeometry width="50" height="50" relative="1" as="geometry">
            <mxPoint x="490" y="680" as="sourcePoint" />
            <mxPoint x="540" y="630" as="targetPoint" />
          </mxGeometry>
        </mxCell>
        <mxCell id="FEOhGibvp6qKB15Zhyrx-28" value="" style="endArrow=none;html=1;rounded=0;fontFamily=Helvetica;fontSize=16;fontColor=default;entryX=0.5;entryY=0;entryDx=0;entryDy=0;exitX=0.5;exitY=1;exitDx=0;exitDy=0;" edge="1" parent="1" source="FEOhGibvp6qKB15Zhyrx-25" target="FEOhGibvp6qKB15Zhyrx-26">
          <mxGeometry width="50" height="50" relative="1" as="geometry">
            <mxPoint x="430" y="585" as="sourcePoint" />
            <mxPoint x="480" y="535" as="targetPoint" />
          </mxGeometry>
        </mxCell>
        <mxCell id="FEOhGibvp6qKB15Zhyrx-30" value="" style="endArrow=none;html=1;rounded=0;fontFamily=Helvetica;fontSize=16;fontColor=default;entryX=0.5;entryY=0;entryDx=0;entryDy=0;exitX=0.5;exitY=1;exitDx=0;exitDy=0;" edge="1" parent="1" source="FEOhGibvp6qKB15Zhyrx-26" target="FEOhGibvp6qKB15Zhyrx-8">
          <mxGeometry width="50" height="50" relative="1" as="geometry">
            <mxPoint x="480" y="655" as="sourcePoint" />
            <mxPoint x="480" y="710" as="targetPoint" />
          </mxGeometry>
        </mxCell>
        <mxCell id="FEOhGibvp6qKB15Zhyrx-31" value="Res_Delta_Y" style="shape=process;whiteSpace=wrap;html=1;backgroundOutline=1;align=center;verticalAlign=middle;fontFamily=Helvetica;fontSize=16;fontColor=default;fillColor=none;gradientColor=none;" vertex="1" parent="1">
          <mxGeometry x="835" y="570" width="120" height="60" as="geometry" />
        </mxCell>
        <mxCell id="FEOhGibvp6qKB15Zhyrx-32" value="Delta()" style="shape=process;whiteSpace=wrap;html=1;backgroundOutline=1;align=center;verticalAlign=middle;fontFamily=Helvetica;fontSize=16;fontColor=default;fillColor=none;gradientColor=none;" vertex="1" parent="1">
          <mxGeometry x="835" y="670" width="120" height="60" as="geometry" />
        </mxCell>
        <mxCell id="FEOhGibvp6qKB15Zhyrx-33" value="" style="endArrow=none;html=1;rounded=0;fontFamily=Helvetica;fontSize=16;fontColor=default;entryX=0.5;entryY=0;entryDx=0;entryDy=0;exitX=0.5;exitY=1;exitDx=0;exitDy=0;" edge="1" parent="1" source="FEOhGibvp6qKB15Zhyrx-31" target="FEOhGibvp6qKB15Zhyrx-32">
          <mxGeometry width="50" height="50" relative="1" as="geometry">
            <mxPoint x="1305" y="605" as="sourcePoint" />
            <mxPoint x="1355" y="555" as="targetPoint" />
          </mxGeometry>
        </mxCell>
        <mxCell id="FEOhGibvp6qKB15Zhyrx-34" value="" style="endArrow=none;html=1;rounded=0;fontFamily=Helvetica;fontSize=16;fontColor=default;entryX=0.5;entryY=1;entryDx=0;entryDy=0;exitX=0.5;exitY=0;exitDx=0;exitDy=0;" edge="1" parent="1" source="FEOhGibvp6qKB15Zhyrx-14" target="FEOhGibvp6qKB15Zhyrx-32">
          <mxGeometry width="50" height="50" relative="1" as="geometry">
            <mxPoint x="635" y="530" as="sourcePoint" />
            <mxPoint x="685" y="480" as="targetPoint" />
          </mxGeometry>
        </mxCell>
        <mxCell id="FEOhGibvp6qKB15Zhyrx-35" value="" style="endArrow=none;html=1;rounded=0;fontFamily=Helvetica;fontSize=16;fontColor=default;entryX=0.5;entryY=1;entryDx=0;entryDy=0;exitX=0.5;exitY=0;exitDx=0;exitDy=0;" edge="1" parent="1" source="FEOhGibvp6qKB15Zhyrx-31" target="FEOhGibvp6qKB15Zhyrx-13">
          <mxGeometry width="50" height="50" relative="1" as="geometry">
            <mxPoint x="715" y="580" as="sourcePoint" />
            <mxPoint x="765" y="530" as="targetPoint" />
          </mxGeometry>
        </mxCell>
        <mxCell id="jtaZGn-zuC6d_EoR23D8-3" value="" style="endArrow=none;dashed=1;html=1;rounded=0;fontFamily=Helvetica;fontSize=16;fontColor=default;exitX=1;exitY=0.5;exitDx=0;exitDy=0;" edge="1" parent="1" target="jtaZGn-zuC6d_EoR23D8-4" source="FEOhGibvp6qKB15Zhyrx-7">
          <mxGeometry width="50" height="50" relative="1" as="geometry">
            <mxPoint x="420" y="500" as="sourcePoint" />
            <mxPoint x="570" y="490" as="targetPoint" />
          </mxGeometry>
        </mxCell>
        <mxCell id="jtaZGn-zuC6d_EoR23D8-4" value="&amp;nbsp; &amp;nbsp;Вычисление координаты X&lt;br style=&quot;border-color: var(--border-color); text-align: center;&quot;&gt;&lt;span style=&quot;text-align: center;&quot;&gt;&amp;nbsp; &amp;nbsp;Входные данные: delta_x, delta&lt;/span&gt;&lt;br style=&quot;border-color: var(--border-color); text-align: center;&quot;&gt;&lt;span style=&quot;text-align: center;&quot;&gt;&amp;nbsp; &amp;nbsp;Выходные данные: double res_x&lt;/span&gt;" style="strokeWidth=2;html=1;shape=mxgraph.flowchart.annotation_1;align=left;pointerEvents=1;verticalAlign=middle;fontFamily=Helvetica;fontSize=16;fontColor=default;fillColor=none;gradientColor=none;" vertex="1" parent="1">
          <mxGeometry x="413" y="470" width="25" height="60" as="geometry" />
        </mxCell>
        <mxCell id="jtaZGn-zuC6d_EoR23D8-5" value="" style="endArrow=none;dashed=1;html=1;rounded=0;fontFamily=Helvetica;fontSize=16;fontColor=default;exitX=1;exitY=0.5;exitDx=0;exitDy=0;" edge="1" parent="1" target="jtaZGn-zuC6d_EoR23D8-6" source="FEOhGibvp6qKB15Zhyrx-13">
          <mxGeometry width="50" height="50" relative="1" as="geometry">
            <mxPoint x="390" y="520" as="sourcePoint" />
            <mxPoint x="580" y="510" as="targetPoint" />
          </mxGeometry>
        </mxCell>
        <mxCell id="jtaZGn-zuC6d_EoR23D8-6" value="&amp;nbsp; &amp;nbsp;Вычисление координаты Y&lt;br style=&quot;border-color: var(--border-color); text-align: center;&quot;&gt;&lt;span style=&quot;text-align: center;&quot;&gt;&amp;nbsp; &amp;nbsp;Входные данные: delta_y, delta&lt;/span&gt;&lt;br style=&quot;border-color: var(--border-color); text-align: center;&quot;&gt;&lt;span style=&quot;text-align: center;&quot;&gt;&amp;nbsp; &amp;nbsp;Выходные данные: double res_y&lt;br&gt;&lt;/span&gt;" style="strokeWidth=2;html=1;shape=mxgraph.flowchart.annotation_1;align=left;pointerEvents=1;verticalAlign=middle;fontFamily=Helvetica;fontSize=16;fontColor=default;fillColor=none;gradientColor=none;" vertex="1" parent="1">
          <mxGeometry x="990" y="470" width="25" height="60" as="geometry" />
        </mxCell>
        <mxCell id="jtaZGn-zuC6d_EoR23D8-9" value="" style="endArrow=none;dashed=1;html=1;rounded=0;fontFamily=Helvetica;fontSize=16;fontColor=default;exitX=1;exitY=0.5;exitDx=0;exitDy=0;" edge="1" parent="1" target="jtaZGn-zuC6d_EoR23D8-10" source="FEOhGibvp6qKB15Zhyrx-25">
          <mxGeometry width="50" height="50" relative="1" as="geometry">
            <mxPoint x="383" y="600" as="sourcePoint" />
            <mxPoint x="533" y="590" as="targetPoint" />
          </mxGeometry>
        </mxCell>
        <mxCell id="jtaZGn-zuC6d_EoR23D8-10" value="&amp;nbsp; &amp;nbsp;Вычисление определителя второго порядка" style="strokeWidth=2;html=1;shape=mxgraph.flowchart.annotation_1;align=left;pointerEvents=1;verticalAlign=middle;fontFamily=Helvetica;fontSize=16;fontColor=default;fillColor=none;gradientColor=none;" vertex="1" parent="1">
          <mxGeometry x="413" y="570" width="25" height="60" as="geometry" />
        </mxCell>
        <mxCell id="jtaZGn-zuC6d_EoR23D8-11" value="" style="endArrow=none;dashed=1;html=1;rounded=0;fontFamily=Helvetica;fontSize=16;fontColor=default;exitX=1;exitY=0.5;exitDx=0;exitDy=0;" edge="1" parent="1" target="jtaZGn-zuC6d_EoR23D8-12" source="FEOhGibvp6qKB15Zhyrx-31">
          <mxGeometry width="50" height="50" relative="1" as="geometry">
            <mxPoint x="955" y="600" as="sourcePoint" />
            <mxPoint x="1105" y="590" as="targetPoint" />
          </mxGeometry>
        </mxCell>
        <mxCell id="jtaZGn-zuC6d_EoR23D8-12" value="&amp;nbsp; &amp;nbsp;Вычисление определителя второго порядка" style="strokeWidth=2;html=1;shape=mxgraph.flowchart.annotation_1;align=left;pointerEvents=1;verticalAlign=middle;fontFamily=Helvetica;fontSize=16;fontColor=default;fillColor=none;gradientColor=none;" vertex="1" parent="1">
          <mxGeometry x="985" y="570" width="25" height="60" as="geometry" />
        </mxCell>
        <mxCell id="jtaZGn-zuC6d_EoR23D8-13" value="" style="endArrow=none;dashed=1;html=1;rounded=0;fontFamily=Helvetica;fontSize=16;fontColor=default;exitX=1;exitY=0.5;exitDx=0;exitDy=0;" edge="1" parent="1" target="jtaZGn-zuC6d_EoR23D8-14" source="FEOhGibvp6qKB15Zhyrx-26">
          <mxGeometry width="50" height="50" relative="1" as="geometry">
            <mxPoint x="380" y="700" as="sourcePoint" />
            <mxPoint x="530" y="690" as="targetPoint" />
          </mxGeometry>
        </mxCell>
        <mxCell id="jtaZGn-zuC6d_EoR23D8-14" value="&amp;nbsp; &amp;nbsp;Вычисление определителя второго порядка" style="strokeWidth=2;html=1;shape=mxgraph.flowchart.annotation_1;align=left;pointerEvents=1;verticalAlign=middle;fontFamily=Helvetica;fontSize=16;fontColor=default;fillColor=none;gradientColor=none;" vertex="1" parent="1">
          <mxGeometry x="410" y="670" width="25" height="60" as="geometry" />
        </mxCell>
        <mxCell id="jtaZGn-zuC6d_EoR23D8-15" value="" style="endArrow=none;dashed=1;html=1;rounded=0;fontFamily=Helvetica;fontSize=16;fontColor=default;exitX=1;exitY=0.5;exitDx=0;exitDy=0;" edge="1" parent="1" target="jtaZGn-zuC6d_EoR23D8-16" source="FEOhGibvp6qKB15Zhyrx-32">
          <mxGeometry width="50" height="50" relative="1" as="geometry">
            <mxPoint x="955" y="700" as="sourcePoint" />
            <mxPoint x="1105" y="690" as="targetPoint" />
          </mxGeometry>
        </mxCell>
        <mxCell id="jtaZGn-zuC6d_EoR23D8-16" value="&amp;nbsp; &amp;nbsp;Вычисление определителя второго порядка" style="strokeWidth=2;html=1;shape=mxgraph.flowchart.annotation_1;align=left;pointerEvents=1;verticalAlign=middle;fontFamily=Helvetica;fontSize=16;fontColor=default;fillColor=none;gradientColor=none;" vertex="1" parent="1">
          <mxGeometry x="985" y="670" width="25" height="60" as="geometry" />
        </mxCell>
        <mxCell id="jtaZGn-zuC6d_EoR23D8-17" value="" style="endArrow=none;dashed=1;html=1;rounded=0;fontFamily=Helvetica;fontSize=16;fontColor=default;exitX=1;exitY=0.5;exitDx=0;exitDy=0;" edge="1" parent="1" target="jtaZGn-zuC6d_EoR23D8-18" source="FEOhGibvp6qKB15Zhyrx-14">
          <mxGeometry width="50" height="50" relative="1" as="geometry">
            <mxPoint x="955" y="805" as="sourcePoint" />
            <mxPoint x="1105" y="795" as="targetPoint" />
          </mxGeometry>
        </mxCell>
        <mxCell id="jtaZGn-zuC6d_EoR23D8-18" value="&amp;nbsp; &amp;nbsp;Вычисление координаты Y" style="strokeWidth=2;html=1;shape=mxgraph.flowchart.annotation_1;align=left;pointerEvents=1;verticalAlign=middle;fontFamily=Helvetica;fontSize=16;fontColor=default;fillColor=none;gradientColor=none;" vertex="1" parent="1">
          <mxGeometry x="985" y="775" width="25" height="60" as="geometry" />
        </mxCell>
        <mxCell id="jtaZGn-zuC6d_EoR23D8-19" value="" style="endArrow=none;dashed=1;html=1;rounded=0;fontFamily=Helvetica;fontSize=16;fontColor=default;exitX=1;exitY=0.5;exitDx=0;exitDy=0;" edge="1" parent="1" target="jtaZGn-zuC6d_EoR23D8-20" source="FEOhGibvp6qKB15Zhyrx-8">
          <mxGeometry width="50" height="50" relative="1" as="geometry">
            <mxPoint x="410" y="800" as="sourcePoint" />
            <mxPoint x="560" y="790" as="targetPoint" />
          </mxGeometry>
        </mxCell>
        <mxCell id="jtaZGn-zuC6d_EoR23D8-20" value="&amp;nbsp; &amp;nbsp;Вычисление координаты X" style="strokeWidth=2;html=1;shape=mxgraph.flowchart.annotation_1;align=left;pointerEvents=1;verticalAlign=middle;fontFamily=Helvetica;fontSize=16;fontColor=default;fillColor=none;gradientColor=none;" vertex="1" parent="1">
          <mxGeometry x="410" y="770" width="25" height="60" as="geometry" />
        </mxCell>
      </root>
    </mxGraphModel>
  </diagram>
</mxfile>
